<svg width="41" height="40" viewBox="0 0 41 40" fill="none" xmlns="http://www.w3.org/2000/svg">
<path d="M16.3001 21.304V20.304H15.3001H11.1445V14.453H15.5239H16.5239V13.453V8.58181V8.49337L16.5083 8.4063C16.439 8.0174 16.0844 5.41497 18.5349 3.21531C20.8096 1.17373 23.7311 1 24.5862 1C24.6946 1 24.7626 1.00261 24.7841 1.00364L24.8079 1.00477H24.8318H29.8555V6.39497H29.8518H29.8451H29.8384H29.8316H29.8248H29.8179H29.811H29.804H29.797H29.7899H29.7828H29.7756H29.7684H29.7611H29.7537H29.7464H29.7389H29.7314H29.7239H29.7163H29.7087H29.701H29.6933H29.6855H29.6777H29.6699H29.662H29.654H29.646H29.638H29.6299H29.6218H29.6136H29.6054H29.5971H29.5888H29.5805H29.5721H29.5637H29.5552H29.5467H29.5382H29.5296H29.5209H29.5123H29.5035H29.4948H29.486H29.4772H29.4683H29.4594H29.4505H29.4415H29.4325H29.4234H29.4143H29.4052H29.3961H29.3869H29.3776H29.3684H29.3591H29.3497H29.3404H29.331H29.3215H29.3121H29.3026H29.293H29.2835H29.2739H29.2642H29.2546H29.2449H29.2352H29.2254H29.2157H29.2059H29.196H29.1862H29.1763H29.1663H29.1564H29.1464H29.1364H29.1264H29.1163H29.1063H29.0961H29.086H29.0759H29.0657H29.0555H29.0452H29.035H29.0247H29.0144H29.0041H28.9937H28.9834H28.973H28.9626H28.9521H28.9417H28.9312H28.9207H28.9102H28.8997H28.8891H28.8785H28.8679H28.8573H28.8467H28.8361H28.8254H28.8147H28.804H28.7933H28.7826H28.7718H28.7611H28.7503H28.7395H28.7287H28.7179H28.7071H28.6962H28.6854H28.6745H28.6636H28.6527H28.6418H28.6309H28.6199H28.609H28.598H28.5871H28.5761H28.5651H28.5541H28.5431H28.5321H28.5211H28.5101H28.499H28.488H28.477H28.4659H28.4548H28.4438H28.4327H28.4216H28.4105H28.3995H28.3884H28.3773H28.3662H28.3551H28.3439H28.3328H28.3217H28.3106H28.2995H28.2884H28.2773H28.2661H28.255H28.2439H28.2328H28.2216H28.2105H28.1994H28.1883H28.1772H28.1661H28.1549H28.1438H28.1327H28.1216H28.1105H28.0994H28.0883H28.0772H28.0662H28.0551H28.044H28.0329H28.0219H28.0108H27.9998H27.9887H27.9777H27.9667H27.9557H27.9447H27.9337H27.9227H27.9117H27.9007H27.8898H27.8788H27.8679H27.8569H27.846H27.8351H27.8242H27.8133H27.8025H27.7916H27.7808H27.7699H27.7591H27.7483H27.7375H27.7268H27.716H27.7053H27.6945H27.6838H27.6731H27.6624H27.6518H27.6411H27.6305H27.6199H27.6093H27.5988H27.5882H27.5777H27.5672H27.5567H27.5462H27.5357H27.5253H27.5149H27.5045H27.4942H27.4838H27.4735H27.4632H27.4529H27.4427H27.4324H27.4222H27.4121H27.4019H27.3918H27.3817H27.3716H27.3615H27.3515H27.3415H27.3315H27.3216H27.3117H27.3018H27.2919H27.2821H27.2723H27.2625H27.2528H27.2431H27.2334H27.2237H27.2141H27.2045H27.195H27.1854H27.176H27.1665H27.1571H27.1477H27.1383H27.129H27.1197H27.1104H27.1012H27.092H27.0828H27.0737H27.0646H27.0556H27.0466H27.0376H27.0287H27.0198H27.0109H27.0021H26.9933H26.9846H26.9759H26.9672H26.9586H26.95H26.9414H26.9329H26.9245H26.9161H26.9077H26.8993H26.8911H26.8828H26.8746H26.8664H26.8583H26.8502H26.8422H26.8342H26.8263H26.8184H26.8105H26.8027H26.7949H26.7872H26.7796H26.772H26.7644H26.7569H26.7494H26.742H26.7346H26.7273H26.72H26.7127H26.7056H26.6984H26.6914H26.6843H26.6774H26.6704H26.6636H26.6568H26.65H26.6433H26.6366H26.63H26.6235H26.617H26.6105H26.6041H26.5978H26.5915H26.5853H26.5792H26.5731H26.567H26.561H26.5551H26.5492H26.5434H26.5376H26.5319H26.5263H26.5207H26.5152H26.5097H26.5043H26.499H26.4937H26.4885H26.4833H26.4782H26.4732H26.4682H26.4633H26.4585H26.4537H26.449H26.4443H26.4398H26.4352H26.4308H26.4264H26.4221H26.4178H26.4136H26.4095H26.4054H26.4014H26.3975H26.3937H26.3899H26.3862H26.3825H26.379H26.3755H26.372H26.3686H26.3654H26.3621H26.359H26.3559H26.3529H26.35H26.3471H26.3443H26.3416H26.3389H26.3364H26.3339H26.3315H26.3291H26.3268H26.3246H26.3225H26.3205H26.3185H26.3166H26.3148H26.3131H26.3114H26.3099H26.3084H26.3069H26.3056H26.3043H26.3032C25.4822 6.39497 24.6818 6.58471 24.084 7.13392C23.4705 7.69752 23.2431 8.4789 23.2431 9.28748V13.4532V14.4532H24.2431H29.8108L29.1099 20.389H24.2428H23.2428V21.389V39H16.3001V21.304ZM30.1942 6.74981L30.1941 6.39497C30.1942 6.39497 30.1942 6.39497 30.1942 6.39497V6.74981V7.39497L30.1942 6.74981Z" stroke="#D9D9D9" stroke-width="2"/>
</svg>
